<svg width="446" height="448" viewBox="0 0 446 448" fill="none" xmlns="http://www.w3.org/2000/svg">
<path d="M354.25 112H91.75C86.7772 112 82.0081 113.975 78.4917 117.492C74.9754 121.008 73 125.777 73 130.75V318.25C73 323.223 74.9754 327.992 78.4917 331.508C82.0081 335.025 86.7772 337 91.75 337H354.25C359.223 337 363.992 335.025 367.508 331.508C371.025 327.992 373 323.223 373 318.25V130.75C373 125.777 371.025 121.008 367.508 117.492C363.992 113.975 359.223 112 354.25 112V112ZM339.812 318.25H107.312L172.937 250.375L159.438 237.344L91.75 307.375V145L208.281 260.969C211.794 264.461 216.547 266.421 221.5 266.421C226.453 266.421 231.206 264.461 234.719 260.969L354.25 142.094V306.156L285.25 237.156L272.031 250.375L339.812 318.25ZM104.031 130.75H339.062L221.5 247.656L104.031 130.75Z" fill="white"/>
</svg>
