<svg class="instagram" width="446" height="448" viewBox="0 0 446 448" fill="none" xmlns="http://www.w3.org/2000/svg">
<path d="M223 74C182.294 74 177.175 74.1875 161.181 74.9C145.188 75.65 134.294 78.1625 124.75 81.875C114.739 85.6404 105.672 91.5467 98.1813 99.1813C90.5514 106.676 84.6458 115.742 80.875 125.75C77.1625 135.275 74.6313 146.187 73.9 162.125C73.1875 178.156 73 183.256 73 224.019C73 264.744 73.1875 269.844 73.9 285.838C74.65 301.813 77.1625 312.706 80.875 322.25C84.7187 332.112 89.8375 340.475 98.1813 348.819C106.506 357.162 114.869 362.3 124.731 366.125C134.294 369.837 145.169 372.369 161.144 373.1C177.156 373.812 182.256 374 223 374C263.744 374 268.825 373.812 284.838 373.1C300.794 372.35 311.725 369.837 321.269 366.125C331.273 362.358 340.334 356.451 347.819 348.819C356.162 340.475 361.281 332.112 365.125 322.25C368.819 312.706 371.35 301.813 372.1 285.838C372.812 269.844 373 264.744 373 224C373 183.256 372.812 178.156 372.1 162.144C371.35 146.188 368.819 135.275 365.125 125.75C361.355 115.742 355.449 106.675 347.819 99.1813C340.331 91.5439 331.262 85.6371 321.25 81.875C311.687 78.1625 300.775 75.6313 284.819 74.9C268.806 74.1875 263.725 74 222.963 74H223.019H223ZM209.556 101.038H223.019C263.069 101.038 267.812 101.169 283.619 101.9C298.244 102.556 306.194 105.013 311.481 107.056C318.475 109.775 323.481 113.037 328.731 118.287C333.981 123.537 337.225 128.525 339.944 135.538C342.006 140.806 344.444 148.756 345.1 163.381C345.831 179.188 345.981 183.931 345.981 223.963C345.981 263.994 345.831 268.756 345.1 284.562C344.444 299.187 341.988 307.119 339.944 312.406C337.539 318.919 333.7 324.808 328.712 329.637C323.462 334.887 318.475 338.131 311.463 340.85C306.213 342.913 298.262 345.35 283.619 346.025C267.812 346.738 263.069 346.906 223.019 346.906C182.969 346.906 178.206 346.738 162.4 346.025C147.775 345.35 139.844 342.913 134.556 340.85C128.041 338.449 122.146 334.617 117.306 329.637C112.314 324.801 108.47 318.906 106.056 312.387C104.013 307.119 101.556 299.169 100.9 284.544C100.188 268.738 100.038 263.994 100.038 223.925C100.038 183.875 100.188 179.15 100.9 163.344C101.575 148.719 104.013 140.769 106.075 135.481C108.794 128.488 112.056 123.481 117.306 118.231C122.556 112.981 127.544 109.738 134.556 107.019C139.844 104.956 147.775 102.519 162.4 101.844C176.238 101.206 181.6 101.019 209.556 101V101.038V101.038ZM303.081 125.937C300.717 125.937 298.377 126.403 296.193 127.308C294.009 128.212 292.025 129.538 290.353 131.21C288.682 132.881 287.356 134.865 286.451 137.049C285.547 139.233 285.081 141.574 285.081 143.938C285.081 146.301 285.547 148.642 286.451 150.826C287.356 153.01 288.682 154.994 290.353 156.665C292.025 158.337 294.009 159.663 296.193 160.567C298.377 161.472 300.717 161.938 303.081 161.938C307.855 161.938 312.434 160.041 315.809 156.665C319.185 153.29 321.081 148.711 321.081 143.938C321.081 139.164 319.185 134.585 315.809 131.21C312.434 127.834 307.855 125.937 303.081 125.937V125.937ZM223.019 146.975C212.801 146.816 202.654 148.69 193.168 152.49C183.682 156.29 175.047 161.939 167.765 169.108C160.483 176.277 154.701 184.823 150.753 194.249C146.806 203.674 144.773 213.791 144.773 224.009C144.773 234.228 146.806 244.345 150.753 253.77C154.701 263.196 160.483 271.742 167.765 278.911C175.047 286.08 183.682 291.729 193.168 295.529C202.654 299.328 212.801 301.203 223.019 301.044C243.241 300.728 262.529 292.473 276.718 278.061C290.908 263.649 298.861 244.234 298.861 224.009C298.861 203.784 290.908 184.37 276.718 169.958C262.529 155.545 243.241 147.291 223.019 146.975V146.975ZM223.019 173.994C236.281 173.994 249.001 179.262 258.379 188.64C267.757 198.018 273.025 210.738 273.025 224C273.025 237.262 267.757 249.982 258.379 259.36C249.001 268.738 236.281 274.006 223.019 274.006C209.756 274.006 197.037 268.738 187.659 259.36C178.281 249.982 173.013 237.262 173.013 224C173.013 210.738 178.281 198.018 187.659 188.64C197.037 179.262 209.756 173.994 223.019 173.994V173.994Z" fill="white"/>
</svg>
